<svg width="800" height="800" viewBox="0 0 800 800" fill="none" xmlns="http://www.w3.org/2000/svg">
<rect width="800" height="800" rx="200" fill="#155DFC"/>
<path d="M670.6 374.652L585.729 289.782V191.742C585.729 174.015 571.364 159.648 553.611 159.648C535.899 159.648 521.534 174.015 521.534 191.742V225.587L458.341 162.392C427.098 131.166 372.776 131.221 341.604 162.448L129.395 374.652C116.868 387.205 116.868 407.514 129.395 420.047C141.928 432.596 162.278 432.596 174.806 420.047L386.994 207.838C393.907 200.961 406.09 200.961 412.966 207.817L625.191 420.047C631.484 426.322 639.688 429.443 647.89 429.443C656.11 429.443 664.328 426.319 670.601 420.047C683.133 407.516 683.133 387.206 670.6 374.652Z" fill="white"/>
<path d="M411.148 268.758C404.982 262.597 395 262.597 388.853 268.758L202.193 455.362C199.246 458.308 197.576 462.33 197.576 466.527V602.629C197.576 634.566 223.471 660.461 255.407 660.461H347.822V517.34H452.157V660.461H544.574C576.509 660.461 602.404 634.566 602.404 602.63V466.527C602.404 462.33 600.748 458.308 597.786 455.362L411.148 268.758Z" fill="white"/>
</svg>
